<svg xmlns="http://www.w3.org/2000/svg" version="1.1" width="29.567" height="29.567" viewBox="0 0 1572.974 1572.974" id="svg21"><g transform="scale(5.03352)" id="g19"><g id="SvgjsG2430" transform="translate(.312) scale(6.25)" fill="#fd7014"><path d="M24.95 0a25 25 0 1025 25 25 25 0 00-25-25zm0 46.91a22 22 0 1122-22 22 22 0 01-22 21.99z" id="path3"/><path d="M24.95 3.65a21.3 21.3 0 1021.3 21.3 21.33 21.33 0 00-21.3-21.3z" id="path5"/></g><g id="SvgjsG2431" transform="translate(45.953 45.707) scale(2.19955)" fill="#222831"><g transform="translate(0 -952.362)" id="g10"><path style="text-indent:0;text-transform:none" d="M29.086 961.957a.132.132 0 00-.018.005.202.202 0 00-.107.056l-1.413 1.315-1.413 1.314-1.412 1.315a.202.202 0 00-.051.08l-1.19 3.23a.197.197 0 00-.008.093l.223 1.916.224 1.916.117.98-2.774 7.552a35.799 35.799 0 00-5.758 13.58l-.732-4.238.303-.983.57-1.846.559-1.851a.194.194 0 00.009-.089l-.592-3.394a.198.198 0 00-.033-.088l-1.156-1.543-1.152-1.548-1.156-1.548a.207.207 0 00-.2-.08.185.185 0 00-.07.024.093.093 0 00-.014.014.205.205 0 00-.066.103l-.564 1.846-.568 1.846-.565 1.841a.223.223 0 00-.005.098l.588 3.39a.213.213 0 00.037.088l1.152 1.543 1.151 1.548.592.793 1.376 7.944a35.709 35.709 0 001.8 14.615l-2.751-3.296-.234-1.007-.428-1.879-.439-1.883a.214.214 0 00-.037-.084l-2.21-2.644a.194.194 0 00-.074-.056l-1.777-.764-1.771-.76-1.767-.765a.215.215 0 00-.266.09l-.005.018a.204.204 0 00-.004.122l.433 1.878.43 1.884.433 1.879c.007.03.021.06.042.084l2.205 2.648c.02.024.045.039.075.05l1.771.765 1.772.765.909.387 5.16 6.19a35.952 35.952 0 008.9 11.772l-4.06-1.491-.704-.756-1.315-1.412-1.32-1.413a.205.205 0 00-.074-.05l-3.235-1.185a.198.198 0 00-.093-.014l-1.917.228-1.916.224-1.916.224a.21.21 0 00-.182.21c.001.01.003.012.005.019.007.04.027.078.056.107l1.315 1.413 1.315 1.412 1.314 1.413c.022.023.05.04.08.05l3.23 1.19c.03.01.062.014.094.01l1.916-.224 1.916-.224.979-.117 7.599 2.793a35.618 35.618 0 0013.548 5.734l-4.252.737-.988-.303-1.847-.564-1.846-.564a.191.191 0 00-.088-.01l-3.394.592c-.032 0-.063.019-.089.037l-1.548 1.156-1.547 1.151-1.548 1.152a.206.206 0 00-.051.27c.004.01.009.01.014.014a.203.203 0 00.102.065l1.846.564 1.842.57 1.846.563c.03.01.062.011.093.01l3.394-.583a.274.274 0 00.084-.042l1.548-1.151 1.547-1.151.788-.588 7.972-1.38c.566.047 1.134.078 1.707.098v.023c.214 0 .43-.01.643-.01.214 0 .429.01.643.01v-.023c.573-.02 1.141-.05 1.707-.098l7.972 1.38.788.588 1.547 1.151 1.548 1.151a.207.207 0 00.084.042l3.394.583c.031.01.063 0 .093-.01l1.846-.564 1.842-.569 1.846-.564a.21.21 0 00.103-.065c.005 0 .01-.01.014-.014a.206.206 0 00-.052-.27l-1.548-1.152-1.547-1.151-1.548-1.156a.208.208 0 00-.089-.037l-3.394-.592c-.03 0-.06 0-.088.01l-1.846.564-1.847.564-.988.303-4.252-.737a35.618 35.618 0 0013.548-5.734l7.6-2.793.978.117 1.916.224 1.916.224c.032 0 .064 0 .094-.01l3.23-1.19a.196.196 0 00.08-.05l1.314-1.413 1.315-1.412 1.315-1.413a.203.203 0 00.056-.107l.005-.02a.209.209 0 00-.182-.209l-1.916-.224-1.916-.224-1.916-.228c-.032 0-.064 0-.094.014l-3.235 1.184a.205.205 0 00-.075.051l-1.319 1.413-1.315 1.412-.704.755-4.06 1.492a35.952 35.952 0 008.9-11.771l5.16-6.191.91-.387 1.771-.765 1.772-.764a.187.187 0 00.074-.051l2.205-2.648a.2.2 0 00.042-.084l.434-1.88.429-1.883.433-1.878a.204.204 0 00-.005-.122c0-.01-.003-.013-.005-.019a.214.214 0 00-.265-.089l-1.767.765-1.772.76-1.776.764a.194.194 0 00-.075.056l-2.21 2.644a.208.208 0 00-.037.084l-.438 1.883-.429 1.879-.233 1.007-2.75 3.296a35.71 35.71 0 001.799-14.615l1.375-7.944.592-.793 1.152-1.548 1.151-1.543a.212.212 0 00.038-.088l.587-3.39a.216.216 0 00-.005-.098l-.564-1.841-.569-1.846-.564-1.846a.205.205 0 00-.065-.103.093.093 0 00-.014-.014.178.178 0 00-.07-.023.207.207 0 00-.2.079l-1.157 1.548-1.151 1.548-1.157 1.543a.202.202 0 00-.032.088l-.592 3.394c-.004.03 0 .06.009.089l.56 1.85.568 1.847.303.983-.732 4.238a35.798 35.798 0 00-5.757-13.58l-2.774-7.553.116-.979.224-1.916.224-1.916a.21.21 0 00-.01-.093l-1.188-3.23a.202.202 0 00-.051-.08l-1.413-1.315-1.413-1.314-1.412-1.315a.202.202 0 00-.107-.056l-.019-.005a.209.209 0 00-.21.182l-.223 1.916-.224 1.916-.229 1.916a.198.198 0 00.014.093l1.184 3.236a.204.204 0 00.052.074l1.412 1.32 1.413 1.314.755.704 1.93 5.259-.289.238-9.632-8.033-.14-.326-.764-1.772-.765-1.771-2.643-2.205-1.879-.434-1.883-.434-.34-.079-.052-.042-.023.028-1.464-.34.592 1.384-.06.075.149.121.08.191.764 1.777.764 1.771 2.644 2.205 1.883.434 1.879.433.205.047 9.748 8.13a33.48 33.48 0 013.068 4.565l-7.72-3.571-.103-.131-1.194-1.515-1.165-1.478-3.035-1.408-1.883.07-1.93.065-1.534.056.95 1.203 1.199 1.515 1.16 1.478 3.04 1.408 1.884-.07 1.925-.065.27-.01 9.036 4.182a33.538 33.538 0 013.347 14.611c0 .157-.003.314-.005.471l-4.89-6.937-.024-.163-.28-1.912-.27-1.86-1.92-2.736-1.67-.881-1.701-.91-1.357-.717.22 1.515.283 1.911.266 1.86 1.926 2.741 1.669.882 1.697.904.242.126 5.725 8.13a33.345 33.345 0 01-4.639 14.76l-.769-8.47.06-.154.719-1.795.694-1.748-.294-3.33-1.002-1.598-1.025-1.637-.812-1.3-.568 1.422-.714 1.8-.699 1.743.303 3.333 1.002 1.6 1.017 1.63.144.234.895 9.911a33.643 33.643 0 01-11.398 10.448l3.57-7.716.131-.102 1.515-1.194 1.478-1.165 1.408-3.035-.07-1.884-.065-1.93-.056-1.533-1.203.95-1.515 1.199-1.478 1.16-1.408 3.04.07 1.884.066 1.925.009.27-4.182 9.035a33.345 33.345 0 01-11.063 3.157l-1.879-1.324 4.797-3.38.168-.023 1.907-.275 1.865-.27 2.736-1.926.881-1.67.91-1.7.717-1.358-1.52.224-1.91.28-1.86.266-2.738 1.925-.88 1.67-.91 1.696-.126.242-5.067 3.572-5.068-3.572-.126-.242-.909-1.697-.88-1.669-2.737-1.925-1.86-.266-1.912-.28-1.52-.224.718 1.357.91 1.702.88 1.669 2.737 1.925 1.865.27 1.906.276.168.023 4.797 3.38-1.878 1.323a33.345 33.345 0 01-11.063-3.156l-4.182-9.035.009-.27.065-1.925.07-1.884-1.408-3.04-1.478-1.16-1.515-1.198-1.203-.951-.055 1.533-.066 1.93-.07 1.884 1.408 3.035 1.478 1.165 1.515 1.194.13.102 3.572 7.716a33.643 33.643 0 01-11.399-10.448l.895-9.911.145-.233 1.016-1.632 1.003-1.599.303-3.333-.7-1.744-.713-1.8-.569-1.421-.811 1.3-1.026 1.637-1.002 1.599-.294 3.329.695 1.748.718 1.795.06.154-.769 8.47a33.345 33.345 0 01-4.638-14.76l5.725-8.13.242-.126 1.697-.904 1.669-.882 1.925-2.74.266-1.86.284-1.912.22-1.515-1.357.717-1.702.91-1.669.88-1.92 2.737-.27 1.86-.28 1.912-.024.163-4.89 6.937c-.002-.157-.005-.314-.005-.47a33.538 33.538 0 013.347-14.612l9.035-4.181.27.009 1.926.065 1.883.07 3.04-1.408 1.16-1.478 1.199-1.515.95-1.203-1.533-.056-1.93-.065-1.883-.07-3.035 1.408-1.166 1.478-1.193 1.515-.103.13-7.72 3.572a33.48 33.48 0 013.067-4.564l9.749-8.131.205-.047 1.879-.433 1.883-.434 2.643-2.205.765-1.771.765-1.777.079-.19.149-.122-.06-.075.591-1.384-1.463.34-.024-.028-.051.042-.34.08-1.884.433-1.879.434-2.643 2.205-.764 1.771-.765 1.772-.14.326-9.632 8.033-.289-.238 1.93-5.259.756-.704 1.412-1.314 1.413-1.32a.204.204 0 00.051-.074l1.184-3.236a.202.202 0 00.014-.093l-.228-1.916-.224-1.916-.224-1.916a.21.21 0 00-.21-.182zM50 1034.927l1.044.736c-.346.017-.694.031-1.044.037-.349-.01-.698-.02-1.044-.037z" visibility="visible" display="inline" overflow="visible" id="path8" direction="ltr" baseline-shift="baseline" fill="#222831" fill-opacity="1" fill-rule="nonzero" stroke="none"/></g></g></g></svg>